<svg aria-hidden="true" style="position: absolute; width: 0; height: 0; overflow: hidden;" version="1.1" xmlns="http://www.w3.org/2000/svg" xmlns:xlink="http://www.w3.org/1999/xlink">
<defs>
<symbol id="icon-hamburger" viewBox="0 0 93 64">
<path stroke-linejoin="round" stroke-linecap="round" stroke-miterlimit="4" stroke-width="8.7273" d="M3.92 58.307h85.93M3.92 31.23h85.93M3.92 4.153h85.93"></path>
</symbol>
<symbol id="icon-person" viewBox="0 0 64 64">
<path d="M32 32c5.893 0 10.667-4.773 10.667-10.667s-4.773-10.667-10.667-10.667c-5.893 0-10.667 4.773-10.667 10.667s4.773 10.667 10.667 10.667zM32 37.333c-7.12 0-21.333 3.573-21.333 10.667v2.667c0 1.467 1.2 2.667 2.667 2.667h37.333c1.467 0 2.667-1.2 2.667-2.667v-2.667c0-7.093-14.213-10.667-21.333-10.667z"></path>
</symbol>
<symbol id="icon-vector" viewBox="0 0 64 64">
<path d="M8 2.5h48c3.038 0 5.5 2.462 5.5 5.5v48c0 3.038-2.462 5.5-5.5 5.5h-48c-3.038 0-5.5-2.462-5.5-5.5v-48c0-3.038 2.462-5.5 5.5-5.5z"></path>
<path d="M45.782 17.020c0.691-0.662 1.611-1.027 2.565-1.020s1.869 0.387 2.55 1.059c0.681 0.672 1.076 1.584 1.101 2.543s-0.321 1.891-0.966 2.598l-19.578 24.617c-0.337 0.364-0.743 0.657-1.195 0.86s-0.939 0.312-1.434 0.322c-0.495 0.009-0.986-0.082-1.445-0.268s-0.876-0.463-1.226-0.815l-12.984-13.053c-0.362-0.339-0.652-0.747-0.853-1.201s-0.309-0.944-0.318-1.441c-0.009-0.497 0.082-0.99 0.267-1.451s0.461-0.879 0.81-1.231c0.35-0.351 0.766-0.628 1.224-0.814s0.949-0.277 1.443-0.269c0.494 0.009 0.981 0.117 1.433 0.32s0.858 0.494 1.195 0.857l10.275 10.325 17.042-21.83c0.030-0.038 0.063-0.074 0.098-0.108h-0.005z"></path>
<path stroke-linejoin="miter" stroke-linecap="butt" stroke-miterlimit="4" stroke-width="5" d="M8 2.5h48c3.038 0 5.5 2.462 5.5 5.5v48c0 3.038-2.462 5.5-5.5 5.5h-48c-3.038 0-5.5-2.462-5.5-5.5v-48c0-3.038 2.462-5.5 5.5-5.5z"></path>
</symbol>
<symbol id="icon-iconsend" viewBox="0 0 64 64">
<path d="M64 5.333l-64 30 20.453 6.313 31.547-24.646-23.995 26.977 0.019 0.006-0.024-0.006v14.69l11.47-11.151 14.53 4.485 10-46.667z"></path>
</symbol>
<symbol id="icon-email" viewBox="0 0 48 64">
<path d="M40 16h-32c-2.2 0-3.98 1.8-3.98 4l-0.020 24c0 2.2 1.8 4 4 4h32c2.2 0 4-1.8 4-4v-24c0-2.2-1.8-4-4-4zM39.2 24.5l-14.14 8.84c-0.64 0.4-1.48 0.4-2.12 0l-14.14-8.84c-0.5-0.32-0.8-0.86-0.8-1.44 0-1.34 1.46-2.14 2.6-1.44l13.4 8.38 13.4-8.38c1.14-0.7 2.6 0.1 2.6 1.44 0 0.58-0.3 1.12-0.8 1.44z"></path>
</symbol>
<symbol id="icon-phone" viewBox="0 0 48 64">
<path d="M39.27 36.974l-4.902-0.56c-1.177-0.135-2.335 0.27-3.165 1.1l-3.551 3.551c-5.461-2.779-9.938-7.237-12.717-12.717l3.57-3.57c0.83-0.83 1.235-1.988 1.1-3.165l-0.56-4.863c-0.232-1.949-1.872-3.416-3.84-3.416h-3.339c-2.181 0-3.995 1.814-3.86 3.995 1.023 16.481 14.203 29.642 30.665 30.665 2.181 0.135 3.995-1.679 3.995-3.859v-3.339c0.019-1.949-1.447-3.589-3.396-3.821z"></path>
</symbol>
<symbol id="icon-closebutton" viewBox="0 0 64 64">
<path d="M64 6.446l-6.446-6.446-25.554 25.554-25.554-25.554-6.446 6.446 25.554 25.554-25.554 25.554 6.446 6.446 25.554-25.554 25.554 25.554 6.446-6.446-25.554-25.554 25.554-25.554z"></path>
<path d="M64 6.446l-6.446-6.446-25.554 25.554-25.554-25.554-6.446 6.446 25.554 25.554-25.554 25.554 6.446 6.446 25.554-25.554 25.554 25.554 6.446-6.446-25.554-25.554 25.554-25.554z"></path>
</symbol>
<symbol id="icon-astronaut" viewBox="0 0 64 64">
<path fill="#4d5ae5" style="fill: var(--color1, #4d5ae5)" d="M63.948 9.048c-0.126-0.385-0.459-0.667-0.861-0.725l-3.821-0.556-1.71-3.462c-0.358-0.73-1.554-0.73-1.913 0l-1.71 3.462-3.821 0.556c-0.402 0.059-0.735 0.339-0.862 0.725-0.125 0.386-0.021 0.811 0.27 1.093l2.766 2.696-0.653 3.806c-0.068 0.4 0.096 0.804 0.423 1.043 0.332 0.241 0.765 0.271 1.124 0.081l3.418-1.797 3.418 1.797c0.156 0.082 0.328 0.123 0.497 0.123 0.221 0 0.442-0.068 0.627-0.204 0.328-0.239 0.493-0.643 0.423-1.043l-0.653-3.806 2.766-2.696c0.29-0.284 0.394-0.707 0.27-1.093zM59.022 11.702c-0.251 0.244-0.366 0.598-0.306 0.944l0.382 2.228-2.001-1.052c-0.156-0.082-0.326-0.123-0.497-0.123s-0.34 0.040-0.497 0.123l-2.001 1.052 0.382-2.228c0.060-0.346-0.056-0.699-0.306-0.944l-1.62-1.579 2.238-0.325c0.348-0.050 0.648-0.269 0.803-0.584l1.001-2.027 1.001 2.027c0.156 0.315 0.456 0.533 0.803 0.584l2.238 0.325-1.618 1.579z"></path>
<path fill="#4d5ae5" style="fill: var(--color1, #4d5ae5)" d="M52.267 41.044h-2.133v2.133h2.133v-2.133z"></path>
<path fill="#4d5ae5" style="fill: var(--color1, #4d5ae5)" d="M52.267 45.311h-2.133v2.133h2.133v-2.133z"></path>
<path fill="#4d5ae5" style="fill: var(--color1, #4d5ae5)" d="M54.4 43.178h-2.133v2.133h2.133v-2.133z"></path>
<path fill="#4d5ae5" style="fill: var(--color1, #4d5ae5)" d="M50.134 43.178h-2.133v2.133h2.133v-2.133z"></path>
<path fill="#4d5ae5" style="fill: var(--color1, #4d5ae5)" d="M44.8 52.778h-2.133v2.133h2.133v-2.133z"></path>
<path fill="#4d5ae5" style="fill: var(--color1, #4d5ae5)" d="M44.8 57.045h-2.133v2.133h2.133v-2.133z"></path>
<path fill="#4d5ae5" style="fill: var(--color1, #4d5ae5)" d="M46.934 54.911h-2.133v2.133h2.133v-2.133z"></path>
<path fill="#4d5ae5" style="fill: var(--color1, #4d5ae5)" d="M42.667 54.911h-2.133v2.133h2.133v-2.133z"></path>
<path fill="#4d5ae5" style="fill: var(--color1, #4d5ae5)" d="M32 48.511h-2.133v2.133h2.133v-2.133z"></path>
<path fill="#4d5ae5" style="fill: var(--color1, #4d5ae5)" d="M32 52.778h-2.133v2.133h2.133v-2.133z"></path>
<path fill="#4d5ae5" style="fill: var(--color1, #4d5ae5)" d="M34.133 50.645h-2.133v2.133h2.133v-2.133z"></path>
<path fill="#4d5ae5" style="fill: var(--color1, #4d5ae5)" d="M29.867 50.645h-2.133v2.133h2.133v-2.133z"></path>
<path fill="#4d5ae5" style="fill: var(--color1, #4d5ae5)" d="M11.733 12.244h-2.133v2.133h2.133v-2.133z"></path>
<path fill="#4d5ae5" style="fill: var(--color1, #4d5ae5)" d="M11.733 16.511h-2.133v2.133h2.133v-2.133z"></path>
<path fill="#4d5ae5" style="fill: var(--color1, #4d5ae5)" d="M13.866 14.377h-2.133v2.133h2.133v-2.133z"></path>
<path fill="#4d5ae5" style="fill: var(--color1, #4d5ae5)" d="M9.6 14.377h-2.133v2.133h2.133v-2.133z"></path>
<path fill="#2e2f42" style="fill: var(--color2, #2e2f42)" d="M49.429 28.319c-0.575-0.776-1.419-1.275-2.377-1.409-0.962-0.137-1.912 0.116-2.68 0.704l-2.505 1.92-3.795 2.834-2.716-1.082c4.843-2.173 8.227-7.017 8.227-12.64 0-7.646-6.245-13.867-13.922-13.867s-13.922 6.221-13.922 13.867c0 2.771 0.829 5.348 2.24 7.517l-5.528-0.048c-0.003 0-0.006 0-0.010 0-0.017 0-0.031 0.009-0.047 0.010-0.106 0.004-0.209 0.026-0.31 0.062-0.026 0.010-0.052 0.015-0.077 0.027-0.013 0.005-0.026 0.006-0.038 0.013l-6.466 3.193c-0.001 0-0.002 0-0.002 0.001l-3.787 1.821c-0.042 0.018-0.084 0.043-0.126 0.070-1.509 1.005-2.023 2.978-1.197 4.591 0.441 0.858 1.19 1.489 2.112 1.778 0.355 0.111 0.718 0.165 1.078 0.165 0.579 0 1.153-0.142 1.679-0.422l2.776-1.476 4.528-2.338 2.714-0.016-10.883 10.831c-0.001 0.001-0.002 0.001-0.003 0.002l-2.677 2.667c-0.632 0.629-0.98 1.465-0.98 2.355 0 0.89 0.348 1.727 0.98 2.357 0.65 0.646 1.504 0.971 2.358 0.971 0.856 0 1.709-0.324 2.361-0.971l2.628-2.618 3.482-2.599 1.802 1.794-3.523 3.508c-0.001 0.001-0.002 0.001-0.003 0.002l-2.677 2.667c-0.633 0.629-0.98 1.465-0.98 2.355 0 0.89 0.348 1.727 0.98 2.357 0.65 0.646 1.505 0.971 2.36 0.971s1.71-0.324 2.361-0.971l6.963-6.933c0.001-0.001 0.001-0.002 0.002-0.003l2.019-2-0.008-0.008c0.013-0.013 0.031-0.017 0.044-0.031l10.332-11.316 6.942 0.988c0.050 0.008 0.1 0.011 0.15 0.011 0.129 0 0.254-0.031 0.374-0.077 0.035-0.013 0.066-0.030 0.099-0.047 0.038-0.019 0.079-0.030 0.115-0.054l6.427-4.267c0.023-0.016 0.036-0.042 0.059-0.059 0.026-0.020 0.058-0.029 0.081-0.051l2.543-2.382c1.323-1.24 1.505-3.271 0.424-4.724zM4.261 35.54c-0.347 0.186-0.74 0.223-1.117 0.103-0.373-0.116-0.676-0.371-0.853-0.716-0.322-0.627-0.135-1.391 0.429-1.804l2.627-1.264 0.898 2.625-1.984 1.055zM11.255 31.885l-3.097 1.6-0.878-2.567 4.054-2.001-0.079 2.968zM41.454 18.644c0 1.837-0.438 3.569-1.198 5.119l-8.363-3.798c-0.087-1.147-0.683-2.15-1.576-2.776l2.928-9.721c4.755 1.513 8.209 5.949 8.209 11.176zM17.876 18.644c0-6.469 5.289-11.733 11.789-11.733 0.506 0 1.001 0.043 1.49 0.104l-2.864 9.507c-0.038-0.001-0.075-0.012-0.114-0.012-2.065 0-3.745 1.675-3.745 3.733s1.68 3.733 3.745 3.733c1.389 0 2.589-0.767 3.236-1.889l7.725 3.509c-2.149 2.893-5.59 4.78-9.473 4.78-6.5 0-11.789-5.264-11.789-11.734zM29.789 20.244c0 0.882-0.723 1.6-1.612 1.6s-1.612-0.718-1.612-1.6c0-0.882 0.723-1.6 1.612-1.6s1.612 0.718 1.612 1.6zM4.93 50.292c-0.473 0.468-1.237 0.467-1.709 0.001-0.227-0.227-0.352-0.527-0.352-0.846 0-0.318 0.125-0.618 0.352-0.843l1.924-1.917 1.702 1.695-1.918 1.909zM11.357 57.759c-0.473 0.468-1.238 0.469-1.71 0.001-0.227-0.227-0.352-0.527-0.352-0.846 0-0.318 0.125-0.618 0.352-0.843l1.925-1.918 1.704 1.695-1.919 1.91zM18.321 50.822c-0.001 0.001-0.002 0.001-0.003 0.002l-3.53 3.52-1.704-1.695 3.526-3.51c0 0 0 0 0-0.001 0.001-0.001 0.002-0.001 0.003-0.002 0.080-0.080 0.13-0.176 0.179-0.271 0.014-0.028 0.041-0.051 0.052-0.080 0.033-0.082 0.038-0.171 0.051-0.257 0.006-0.049 0.028-0.095 0.028-0.145 0-0.072-0.026-0.141-0.041-0.211-0.013-0.064-0.013-0.129-0.037-0.191-0.041-0.1-0.11-0.189-0.182-0.275-0.020-0.023-0.028-0.053-0.050-0.076 0 0 0 0-0.001 0s-0.001-0.003-0.002-0.004l-3.214-3.2c-0.034-0.034-0.078-0.048-0.116-0.077-0.056-0.044-0.111-0.084-0.174-0.115-0.061-0.030-0.123-0.048-0.187-0.065-0.068-0.019-0.134-0.034-0.206-0.039-0.065-0.004-0.126 0.002-0.191 0.010-0.072 0.008-0.139 0.018-0.208 0.041-0.067 0.021-0.127 0.054-0.189 0.090-0.040 0.022-0.084 0.030-0.122 0.058l-3.547 2.648-1.802-1.794 4.798-4.772 8.721 8.577-1.855 1.838zM31.958 36.788c-0.031-0.004-0.060 0.008-0.091 0.005-0.078-0.004-0.152 0.001-0.23 0.014-0.061 0.011-0.118 0.022-0.176 0.043-0.068 0.023-0.13 0.056-0.193 0.094-0.060 0.036-0.114 0.075-0.166 0.123-0.026 0.022-0.056 0.033-0.080 0.059l-9.396 10.291-8.656-8.513 5.666-5.636c0.417-0.416 0.419-1.091 0.003-1.509-0.21-0.21-0.486-0.314-0.763-0.313v-0.001l-4.437 0.027 0.056-3.215 6.208 0.053c2.53 2.588 6.059 4.202 9.963 4.202 0.875 0 1.728-0.091 2.559-0.245 0.080 0.064 0.159 0.129 0.259 0.17l4.819 1.92 0.305 1.517 0.356 1.771-6.005-0.854zM40.041 37.145l-0.626-3.116 2.893-2.16 1.893 2.513-4.16 2.763zM47.548 31.483l-1.676 1.57-1.862-2.473 1.663-1.275c0.31-0.239 0.702-0.336 1.086-0.286 0.386 0.054 0.727 0.256 0.96 0.569 0.433 0.584 0.359 1.397-0.171 1.894z"></path>
<path fill="#2e2f42" style="fill: var(--color2, #2e2f42)" d="M27.204 37.088l-4.286-4.267c-0.415-0.415-1.089-0.415-1.505 0l-4.285 4.267c-0.201 0.202-0.314 0.472-0.314 0.756s0.112 0.556 0.314 0.756l4.285 4.267c0.208 0.207 0.481 0.31 0.753 0.31s0.545-0.103 0.752-0.31l4.286-4.267c0.201-0.2 0.315-0.472 0.315-0.756s-0.113-0.556-0.315-0.756zM22.166 40.606l-2.773-2.762 2.773-2.762 2.774 2.762-2.774 2.762z"></path>
<path fill="#2e2f42" style="fill: var(--color2, #2e2f42)" d="M34.328 10.142l-0.515 2.072c0.142 0.035 3.475 0.903 3.475 4.298h2.133c-0-4.034-3.331-5.931-5.093-6.369z"></path>
<path fill="#2e2f42" style="fill: var(--color2, #2e2f42)" d="M39.422 18.644h-2.133v2.134h2.133v-2.134z"></path>
</symbol>
<symbol id="icon-diagram" viewBox="0 0 64 64">
<path fill="#4d5ae5" style="fill: var(--color1, #4d5ae5)" d="M29.851 29.929h2.132v9.595h-2.132v-9.595z"></path>
<path fill="#4d5ae5" style="fill: var(--color1, #4d5ae5)" d="M38.38 34.194h2.132v5.331h-2.132v-5.331z"></path>
<path fill="#4d5ae5" style="fill: var(--color1, #4d5ae5)" d="M21.322 37.392h2.132v2.132h-2.132v-2.132z"></path>
<path fill="#4d5ae5" style="fill: var(--color1, #4d5ae5)" d="M14.925 36.326h2.132v3.198h-2.132v-3.198z"></path>
<path fill="#2e2f42" style="fill: var(--color2, #2e2f42)" d="M3.198 56.582h51.173c1.766 0 3.198-1.432 3.198-3.198v-4.264c0-1.766-1.432-3.198-3.198-3.198h-1.066v-26.587l6.056-5.737c1.405 0.693 3.107 0.272 4.026-0.997s0.791-3.017-0.305-4.137-2.84-1.287-4.13-0.396c-1.289 0.892-1.747 2.584-1.085 4.004l-4.563 4.325v-2.46c0-1.766-1.432-3.198-3.198-3.198h-42.644c-1.766 0-3.198 1.432-3.198 3.198v31.983h-1.066c-1.766 0-3.198 1.432-3.198 3.198v4.264c0 1.766 1.432 3.198 3.198 3.198zM60.768 9.673c0.589 0 1.066 0.477 1.066 1.066s-0.477 1.066-1.066 1.066c-0.589 0-1.066-0.477-1.066-1.066s0.477-1.066 1.066-1.066zM6.397 13.938c0-0.589 0.477-1.066 1.066-1.066h42.644c0.589 0 1.066 0.477 1.066 1.066v4.477l-2.132 2.026v-4.371c0-0.589-0.477-1.066-1.066-1.066h-38.38c-0.589 0-1.066 0.477-1.066 1.066v26.653c0 0.589 0.477 1.066 1.066 1.066h38.38c0.589 0 1.066-0.477 1.066-1.066v-19.349l2.132-2.020v24.567h-44.777v-31.983zM15.992 27.797c-1.442-0.004-2.709 0.957-3.093 2.347s0.21 2.865 1.451 3.601c1.24 0.736 2.82 0.551 3.856-0.452l3.706 1.859c0.43 0.215 0.953 0.114 1.273-0.245l7.878-8.863 7.744 5.803c0.415 0.311 0.995 0.278 1.372-0.079l6.73-6.375v16.262h-36.248v-24.52h36.248v5.321l-7.543 7.143-7.809-5.854c-0.444-0.332-1.068-0.27-1.436 0.144l-7.986 8.985-2.985-1.493c0.022-0.128 0.035-0.257 0.041-0.387 0-1.766-1.432-3.198-3.198-3.198zM17.058 30.995c0 0.589-0.477 1.066-1.066 1.066s-1.066-0.477-1.066-1.066c0-0.589 0.477-1.066 1.066-1.066s1.066 0.477 1.066 1.066zM23.454 48.053h10.661v1.066c0 0.589-0.477 1.066-1.066 1.066h-8.529c-0.589 0-1.066-0.477-1.066-1.066v-1.066zM2.132 49.119c0-0.589 0.477-1.066 1.066-1.066h18.124v1.066c0 1.766 1.432 3.198 3.198 3.198h8.529c1.766 0 3.198-1.432 3.198-3.198v-1.066h18.124c0.589 0 1.066 0.477 1.066 1.066v4.264c0 0.589-0.477 1.066-1.066 1.066h-51.173c-0.589 0-1.066-0.477-1.066-1.066v-4.264z"></path>
</symbol>
<symbol id="icon-clock" viewBox="0 0 64 64">
<path fill="#2e2f42" style="fill: var(--color2, #2e2f42)" d="M62.593 30.602c-0.003-16.905-13.711-30.606-30.616-30.602s-30.606 13.711-30.602 30.616c0.003 13.316 8.614 25.102 21.299 29.152 0.121 0.038 0.247 0.058 0.374 0.057 0.241-0.001 0.477-0.065 0.685-0.188 0.27-0.16 0.472-0.414 0.566-0.713l7.73-24.5c2.113-0.011 3.817-1.733 3.806-3.846s-1.733-3.817-3.846-3.807c-0.568 0.002-1.129 0.133-1.64 0.383l-10.212-10.213c-0.507-0.489-1.314-0.475-1.803 0.031-0.478 0.495-0.478 1.278 0 1.773l10.206 10.218c-0.783 1.599-0.335 3.528 1.073 4.618l-7.365 23.346c-14.556-5.362-22.009-21.508-16.647-36.063s21.508-22.009 36.063-16.647c14.556 5.362 22.009 21.508 16.647 36.063-2.62 7.111-8.002 12.862-14.924 15.947l-0.796-3.748c-0.145-0.689-0.823-1.129-1.512-0.983-0.217 0.046-0.419 0.148-0.585 0.296l-7.674 6.851c-0.526 0.468-0.573 1.274-0.105 1.801 0.152 0.171 0.348 0.298 0.566 0.368l9.797 3.127c0.67 0.215 1.389-0.153 1.604-0.824 0.068-0.212 0.080-0.438 0.034-0.655l-0.782-3.678c11.329-4.776 18.684-15.884 18.658-28.178zM31.984 29.327c0.704 0 1.275 0.571 1.275 1.275s-0.571 1.275-1.275 1.275c-0.705 0-1.275-0.571-1.275-1.275s0.571-1.275 1.275-1.275zM36.185 59.055l4.368-3.897 1.206 5.681-5.574-1.784z"></path>
<path fill="#4d5ae5" style="fill: var(--color1, #4d5ae5)" d="M30.709 6.37v2.551c0 0.705 0.571 1.275 1.275 1.275s1.275-0.571 1.275-1.275v-2.551c0-0.704-0.571-1.275-1.275-1.275s-1.275 0.571-1.275 1.275z"></path>
<path fill="#4d5ae5" style="fill: var(--color1, #4d5ae5)" d="M7.752 29.327c-0.705 0-1.275 0.571-1.275 1.275s0.571 1.275 1.275 1.275h2.551c0.705 0 1.275-0.571 1.275-1.275s-0.571-1.275-1.275-1.275h-2.551z"></path>
<path fill="#4d5ae5" style="fill: var(--color1, #4d5ae5)" d="M56.216 31.878c0.705 0 1.275-0.571 1.275-1.275s-0.571-1.275-1.275-1.275h-2.551c-0.704 0-1.275 0.571-1.275 1.275s0.571 1.275 1.275 1.275h2.551z"></path>
</symbol>
<symbol id="icon-antenna" viewBox="0 0 64 64">
<path fill="#2e2f42" style="fill: var(--color2, #2e2f42)" d="M61.546 44.195l-16.886-17.010 1.874-9.231c0.484 0.189 0.998 0.288 1.517 0.291h0.013c2.385 0.028 4.34-1.882 4.369-4.267s-1.882-4.34-4.267-4.369c-2.385-0.028-4.34 1.882-4.369 4.267-0.006 0.51 0.078 1.017 0.249 1.498l-9.92 1.211-16.181-16.266c-0.198-0.203-0.47-0.318-0.753-0.32-0.28 0.001-0.548 0.113-0.747 0.31l-3.025 3.008c-0.416 0.417-0.416 1.092 0 1.508l1.628 1.651c-6.306 11.596-4.258 25.956 5.039 35.326 0.085 0.082 0.184 0.148 0.292 0.195-0.067 0.361-0.102 0.727-0.105 1.094v12.373h-12.8c-2.944 0.003-5.33 2.389-5.333 5.333v2.133c0 0.589 0.478 1.067 1.067 1.067h49.067c0.589 0 1.067-0.478 1.067-1.067v-2.133c-0.004-2.944-2.389-5.33-5.333-5.333h-12.8v-5.484c2.005 0.421 4.048 0.635 6.097 0.64 4.916-0.005 9.754-1.231 14.080-3.567l1.636 1.646c0.199 0.203 0.469 0.318 0.753 0.32 0.28-0.002 0.548-0.113 0.747-0.31l3.025-3.008c0.416-0.417 0.416-1.092 0-1.508zM46.56 12.466c0.835-0.831 2.186-0.827 3.017 0.008s0.827 2.186-0.008 3.017c-0.4 0.398-0.941 0.621-1.505 0.621h-0.006c-1.178-0.006-2.128-0.966-2.122-2.144 0.003-0.564 0.229-1.104 0.629-1.502h-0.004zM44.049 19.475l-1.197 5.891-2.351-2.365 3.548-3.526zM42.837 17.672l-3.84 3.818-2.971-2.987 6.811-0.831zM48.008 57.6c1.767 0 3.2 1.433 3.2 3.2v1.067h-46.933v-1.067c0-1.767 1.433-3.2 3.2-3.2h40.533zM33.075 53.333v2.133h-10.667v-2.133h10.667zM22.408 51.2v-8.107c0-2.588 2.393-4.693 5.333-4.693s5.333 2.106 5.333 4.693v8.107h-10.667zM35.208 47.808v-4.715c0-3.764-3.349-6.827-7.467-6.827-2.662-0.041-5.151 1.314-6.562 3.572-8.115-8.548-9.943-21.29-4.557-31.774l37.204 37.417c-5.745 2.922-12.33 3.745-18.618 2.326zM57.786 46.441l-42.114-42.362 1.509-1.504 15.87 15.96c0.008 0 0.012 0.014 0.019 0.019l26.229 26.383-1.514 1.504z"></path>
<path fill="#4d5ae5" style="fill: var(--color1, #4d5ae5)" d="M27.751 40.533h-0.010c-1.767-0.003-3.202 1.428-3.205 3.195s1.428 3.202 3.195 3.205h0.010c1.767 0.003 3.202-1.428 3.205-3.195s-1.428-3.202-3.195-3.205zM28.498 44.49c-0.201 0.2-0.473 0.311-0.756 0.31-0.589-0.003-1.064-0.483-1.061-1.072 0.002-0.282 0.115-0.552 0.314-0.751 0.199-0.197 0.467-0.309 0.747-0.31 0.589 0.003 1.064 0.483 1.061 1.072-0.002 0.282-0.115 0.552-0.314 0.751h0.010z"></path>
</symbol>
<symbol id="icon-heretagline" viewBox="0 0 119 64">
<path d="M57.273 6.782h-0.156c-0.24-0.014-0.48-0.020-0.72-0.026v0h-0.52c-0.454 0-0.917 0.012-1.376 0.035-0.035-0.003-0.069-0.003-0.104 0-4.165 0.236-8.246 1.277-12.018 3.066l-0.494 0.238v25.304l1.156-0.392c1.015-0.349 2.096-0.663 3.215-0.953 3.025-0.776 6.13-1.189 9.252-1.229v3.325c-0.413 0.003-0.815 0.015-1.217 0.035h-0.095c-2.402 0.132-4.786 0.498-7.118 1.093-2.953 0.739-5.802 1.85-8.48 3.304v-32.453c2.781-1.622 5.776-2.84 8.896-3.618 2.74-0.707 5.556-1.070 8.384-1.081h0.489c0.584 0.014 1.154 0.041 1.688 0.081 1.409 0.099 2.807 0.322 4.178 0.666v3.272c-1.331-0.31-2.684-0.514-4.048-0.61-0.028-0.002-0.055-0.005-0.083-0.007-0.282-0.024-0.564-0.048-0.828-0.048zM63.032 10.127c0.726 0.055 1.477 0.081 2.238 0.081 2.973-0.011 5.934-0.391 8.815-1.13 2.952-0.742 5.8-1.853 8.477-3.307v31.875c-2.782 1.621-5.778 2.839-8.899 3.618-2.74 0.705-5.556 1.067-8.384 1.078-2.143 0.017-4.28-0.235-6.36-0.75v-32.081c0.491 0.113 0.997 0.218 1.512 0.305 0.844 0.142 1.735 0.247 2.602 0.311zM79.254 10.374l-1.156 0.389c-1.064 0.357-2.137 0.677-3.215 0.962-3.14 0.807-6.367 1.221-9.607 1.232-0.754 0-1.448-0.020-2.119-0.064l-0.922-0.061v26.031l0.792 0.070c0.734 0.064 1.492 0.096 2.255 0.096 2.553-0.011 5.094-0.34 7.566-0.979 2.036-0.511 4.016-1.222 5.912-2.124l0.494-0.238v-25.313z"></path>
<path d="M40.842 51.671c-0.166-0.172-0.367-0.308-0.588-0.398s-0.46-0.131-0.698-0.123c-0.254-0.003-0.507 0.044-0.743 0.14-0.216 0.086-0.413 0.216-0.578 0.381-0.163 0.166-0.29 0.363-0.373 0.581-0.091 0.228-0.136 0.472-0.133 0.718v4.336c-0.010 0.306 0.048 0.609 0.171 0.889 0.102 0.222 0.25 0.42 0.434 0.581 0.173 0.146 0.377 0.251 0.596 0.308 0.211 0.059 0.429 0.090 0.648 0.090 0.242 0.002 0.48-0.049 0.7-0.151 0.217-0.095 0.413-0.231 0.578-0.401 0.161-0.168 0.289-0.365 0.379-0.581 0.093-0.219 0.14-0.454 0.139-0.692v-0.485h-1.133v0.386c0.003 0.132-0.019 0.263-0.066 0.386-0.037 0.092-0.093 0.176-0.165 0.244-0.070 0.057-0.151 0.099-0.237 0.125-0.077 0.026-0.156 0.039-0.237 0.041-0.101 0.012-0.204-0.003-0.297-0.044s-0.174-0.106-0.235-0.188c-0.107-0.174-0.159-0.377-0.15-0.581v-4.042c-0.007-0.224 0.041-0.447 0.139-0.648 0.059-0.092 0.142-0.165 0.24-0.211s0.207-0.064 0.315-0.051c0.098-0.003 0.195 0.017 0.283 0.059s0.165 0.106 0.223 0.185c0.127 0.166 0.193 0.372 0.188 0.581v0.375h1.122v-0.442c0.002-0.259-0.045-0.517-0.139-0.758-0.084-0.227-0.213-0.435-0.379-0.61v0z"></path>
<path d="M47.576 51.622c-0.361-0.305-0.818-0.474-1.289-0.477-0.231 0.001-0.46 0.042-0.677 0.122-0.22 0.079-0.423 0.199-0.598 0.355-0.188 0.169-0.338 0.376-0.44 0.607-0.114 0.265-0.17 0.551-0.165 0.84v4.159c-0.008 0.293 0.048 0.583 0.165 0.852 0.103 0.224 0.253 0.422 0.44 0.581 0.173 0.161 0.377 0.285 0.598 0.366 0.217 0.080 0.446 0.121 0.677 0.122 0.231-0 0.46-0.042 0.676-0.122 0.226-0.082 0.434-0.206 0.613-0.366 0.181-0.162 0.326-0.36 0.428-0.581 0.116-0.268 0.173-0.559 0.165-0.852v-4.159c0.006-0.289-0.051-0.575-0.165-0.84-0.101-0.229-0.246-0.436-0.428-0.607v0zM47.047 57.228c0.010 0.111-0.006 0.222-0.045 0.327s-0.101 0.198-0.181 0.275c-0.15 0.126-0.339 0.194-0.533 0.194s-0.384-0.069-0.533-0.194c-0.080-0.077-0.142-0.171-0.181-0.275s-0.054-0.216-0.045-0.327v-4.159c-0.010-0.111 0.006-0.222 0.045-0.327s0.101-0.198 0.181-0.275c0.15-0.126 0.338-0.194 0.533-0.194s0.384 0.069 0.533 0.194c0.080 0.077 0.142 0.171 0.181 0.275s0.054 0.216 0.045 0.327v4.159z"></path>
<path d="M56.42 59.085v-7.873h-1.090l-1.431 4.167h-0.020l-1.443-4.167h-1.078v7.873h1.125v-4.789h0.020l1.102 3.386h0.561l1.11-3.386h0.020v4.789h1.125z"></path>
<path d="M62.809 51.764c-0.173-0.194-0.392-0.342-0.636-0.43-0.263-0.086-0.539-0.127-0.815-0.122h-1.671v7.873h1.122v-3.075h0.578c0.35 0.016 0.698-0.058 1.012-0.215 0.255-0.142 0.468-0.349 0.616-0.602 0.13-0.209 0.217-0.443 0.257-0.686 0.044-0.296 0.064-0.596 0.061-0.895 0.011-0.378-0.026-0.756-0.11-1.125-0.075-0.272-0.217-0.522-0.413-0.724v0zM62.231 54.165c-0.005 0.142-0.040 0.282-0.104 0.41-0.064 0.121-0.166 0.218-0.289 0.276-0.166 0.074-0.347 0.108-0.529 0.099h-0.512v-2.677h0.578c0.174-0.009 0.348 0.025 0.506 0.099 0.116 0.067 0.208 0.168 0.263 0.291 0.061 0.138 0.095 0.288 0.098 0.439 0 0.166 0 0.34 0 0.523s0.012 0.372 0 0.541h-0.012z"></path>
<path d="M68.123 51.212h-0.919l-1.735 7.873h1.122l0.33-1.691h1.529l0.33 1.691h1.122l-1.778-7.873zM67.088 56.321l0.552-2.854h0.020l0.549 2.854h-1.122z"></path>
<path d="M75.371 55.955h-0.020l-1.694-4.743h-1.078v7.873h1.122v-4.734h0.023l1.714 4.734h1.055v-7.873h-1.122v4.743z"></path>
<path d="M82.226 51.212l-0.902 3.13h-0.023l-0.902-3.13h-1.188l1.541 4.545v3.328h1.122v-3.328l1.541-4.545h-1.188z"></path>
<path d="M37.714 61.308h0.541v1.517h0.367v-1.517h0.538v-0.311h-1.446v0.311z"></path>
<path d="M42.259 60.997l-0.708 1.828h0.39l0.15-0.416h0.729l0.156 0.416h0.399l-0.726-1.828h-0.39zM42.201 62.101l0.249-0.677 0.249 0.677h-0.497z"></path>
<path d="M46.752 62.151h0.422v0.235c-0.123 0.099-0.276 0.153-0.434 0.154-0.074 0.004-0.147-0.010-0.215-0.040s-0.127-0.076-0.173-0.135c-0.097-0.139-0.145-0.307-0.136-0.477 0-0.407 0.176-0.61 0.526-0.61 0.092-0.009 0.184 0.015 0.26 0.068s0.13 0.132 0.153 0.222l0.361-0.070c-0.078-0.358-0.335-0.538-0.775-0.538-0.235-0.006-0.464 0.078-0.639 0.235-0.092 0.091-0.163 0.201-0.209 0.322s-0.064 0.251-0.054 0.381c-0.011 0.25 0.073 0.495 0.234 0.686 0.090 0.092 0.198 0.164 0.318 0.21s0.248 0.066 0.376 0.057c0.286 0.008 0.564-0.096 0.775-0.291v-0.721h-0.792v0.308z"></path>
<path d="M51.34 60.997h-0.37v1.828h1.281v-0.311h-0.911v-1.517z"></path>
<path d="M55.22 60.997h-0.37v1.828h0.37v-1.828z"></path>
<path d="M59.013 62.218l-0.749-1.221h-0.358v1.828h0.344v-1.194l0.734 1.194h0.367v-1.828h-0.338v1.221z"></path>
<path d="M62.442 62.020h0.911v-0.311h-0.911v-0.401h0.98v-0.311h-1.35v1.828h1.388v-0.311h-1.018v-0.494z"></path>
<path d="M70.757 61.718h-0.72v-0.721h-0.367v1.828h0.367v-0.799h0.72v0.799h0.367v-1.828h-0.367v0.721z"></path>
<path d="M74.206 62.020h0.914v-0.311h-0.914v-0.401h0.983v-0.311h-1.35v1.828h1.385v-0.311h-1.018v-0.494z"></path>
<path d="M78.884 62.020c0.318-0.049 0.48-0.218 0.48-0.509 0.009-0.078-0.002-0.157-0.034-0.228s-0.082-0.133-0.145-0.179c-0.165-0.083-0.35-0.12-0.535-0.108h-0.775v1.828h0.367v-0.764h0.072c0.078-0.005 0.157 0.009 0.228 0.041 0.054 0.033 0.098 0.079 0.13 0.134l0.399 0.581h0.439l-0.223-0.358c-0.098-0.176-0.237-0.327-0.405-0.439v0zM78.514 61.767h-0.272v-0.459h0.289c0.126-0.010 0.253 0.005 0.373 0.044 0.027 0.024 0.048 0.053 0.062 0.086s0.020 0.069 0.019 0.104c-0.002 0.036-0.011 0.071-0.028 0.102s-0.041 0.059-0.070 0.080c-0.121 0.037-0.247 0.052-0.373 0.044v0z"></path>
<path d="M82.411 62.020h0.911v-0.311h-0.911v-0.401h0.983v-0.311h-1.353v1.828h1.388v-0.311h-1.018v-0.494z"></path>
</symbol>
<symbol id="icon-tagline" viewBox="0 0 119 64">
<path d="M61.176 31.364c-0.507-0.675-0.75-1.473-0.693-2.277v-3.301c0-1.012 0.23-1.781 0.689-2.307s1.248-0.788 2.366-0.786c1.051 0 1.796 0.224 2.237 0.672 0.481 0.571 0.715 1.27 0.662 1.974v0.776h-1.879v-0.786c0.007-0.257-0.012-0.514-0.054-0.769-0.027-0.174-0.122-0.335-0.268-0.457-0.193-0.131-0.436-0.195-0.681-0.178-0.258-0.017-0.513 0.050-0.716 0.188-0.164 0.135-0.273 0.311-0.311 0.504-0.054 0.269-0.079 0.543-0.074 0.816v4.006c-0.030 0.386 0.053 0.773 0.241 1.125 0.093 0.119 0.223 0.213 0.375 0.273s0.32 0.081 0.485 0.063c0.241 0.017 0.48-0.048 0.665-0.181 0.153-0.131 0.252-0.302 0.28-0.487 0.044-0.266 0.063-0.534 0.058-0.802v-0.813h1.879v0.742c0.053 0.734-0.176 1.464-0.65 2.075-0.432 0.49-1.167 0.735-2.249 0.735s-1.899-0.262-2.362-0.806z"></path>
<path d="M69.001 31.397c-0.475-0.514-0.712-1.262-0.712-2.253v-3.472c0-0.98 0.237-1.723 0.712-2.226s1.269-0.754 2.381-0.752c1.105 0 1.895 0.251 2.37 0.752 0.475 0.504 0.716 1.246 0.716 2.226v3.472c0 0.98-0.241 1.733-0.724 2.25s-1.268 0.776-2.362 0.776-1.903-0.262-2.381-0.772zM72.258 30.565c0.17-0.322 0.247-0.674 0.226-1.027v-4.251c0.022-0.346-0.054-0.692-0.222-1.007-0.095-0.122-0.228-0.218-0.384-0.277s-0.327-0.080-0.496-0.059c-0.169-0.020-0.341 0-0.497 0.060s-0.29 0.155-0.386 0.276c-0.171 0.314-0.249 0.661-0.226 1.007v4.271c-0.024 0.353 0.054 0.706 0.226 1.028 0.11 0.108 0.245 0.195 0.396 0.255s0.316 0.090 0.483 0.090 0.331-0.031 0.483-0.090c0.152-0.060 0.287-0.146 0.396-0.255v-0.020z"></path>
<path d="M76.729 22.795h2.023l1.521 6.406 1.556-6.406h1.969l0.198 9.246h-1.455l-0.156-6.426-1.502 6.426h-1.167l-1.556-6.45-0.144 6.45h-1.471l0.183-9.246z"></path>
<path d="M86.266 22.795h3.152c1.816 0 2.724 0.875 2.724 2.625 0 1.676-0.956 2.514-2.868 2.511h-1.074v4.109h-1.945l0.012-9.246zM88.959 26.747c0.192 0.021 0.387 0.006 0.572-0.045s0.355-0.135 0.498-0.248c0.223-0.312 0.322-0.679 0.28-1.044 0.010-0.282-0.021-0.564-0.093-0.839-0.028-0.092-0.076-0.178-0.143-0.254s-0.15-0.139-0.246-0.186c-0.27-0.112-0.569-0.163-0.868-0.148h-0.755v2.763h0.755z"></path>
<path d="M94.947 22.795h2.090l2.144 9.246h-1.813l-0.424-2.132h-1.864l-0.436 2.132h-1.84l2.144-9.246zM96.733 28.839l-0.728-3.881-0.728 3.881h1.455z"></path>
<path d="M100.912 22.795h1.362l2.607 5.274v-5.274h1.615v9.246h-1.296l-2.623-5.506v5.506h-1.669l0.004-9.246z"></path>
<path d="M110.278 28.516l-2.167-5.708h1.825l1.323 3.666 1.241-3.666h1.786l-2.14 5.708v3.525h-1.868v-3.525z"></path>
<path d="M64.18 36.084v0.484h-1.588v3.757h-0.665v-3.757h-1.595v-0.484h3.848z"></path>
<path d="M69.157 40.325h-0.514c-0.052 0.003-0.104-0.012-0.144-0.040-0.039-0.025-0.069-0.058-0.086-0.097l-0.459-1.007h-2.202l-0.459 1.007c-0.013 0.042-0.037 0.081-0.070 0.114-0.041 0.028-0.092 0.042-0.144 0.040h-0.514l1.945-4.24h0.677l1.969 4.224zM65.935 38.75h1.837l-0.778-1.726c-0.057-0.13-0.106-0.264-0.144-0.4-0.027 0.081-0.050 0.158-0.074 0.225l-0.070 0.178-0.77 1.722z"></path>
<path d="M72.511 39.909c0.122 0.005 0.244 0.005 0.366 0 0.105-0.009 0.209-0.026 0.311-0.050 0.095-0.020 0.189-0.046 0.28-0.077 0.086-0.030 0.171-0.067 0.261-0.104v-0.954h-0.778c-0.019 0.001-0.038-0.002-0.057-0.007s-0.034-0.015-0.048-0.026c-0.013-0.010-0.023-0.021-0.030-0.035s-0.010-0.028-0.009-0.042v-0.326h1.51v1.625c-0.123 0.076-0.253 0.143-0.389 0.202-0.139 0.059-0.283 0.107-0.432 0.144-0.159 0.040-0.322 0.070-0.486 0.087-0.189 0.018-0.378 0.027-0.568 0.027-0.336 0.002-0.669-0.051-0.981-0.158-0.291-0.101-0.556-0.252-0.778-0.443-0.217-0.193-0.387-0.422-0.502-0.672-0.123-0.281-0.183-0.58-0.179-0.88-0.004-0.302 0.055-0.602 0.175-0.886 0.112-0.251 0.283-0.48 0.502-0.672 0.222-0.191 0.487-0.34 0.778-0.44 0.333-0.108 0.687-0.162 1.043-0.158 0.181-0 0.362 0.012 0.541 0.037 0.158 0.022 0.313 0.058 0.463 0.107 0.136 0.044 0.266 0.1 0.389 0.168 0.119 0.066 0.232 0.14 0.338 0.222l-0.187 0.262c-0.015 0.024-0.036 0.044-0.063 0.058s-0.057 0.022-0.089 0.022c-0.043-0.001-0.085-0.013-0.121-0.034-0.058-0.027-0.121-0.060-0.191-0.101-0.083-0.045-0.17-0.083-0.261-0.114-0.116-0.040-0.236-0.072-0.358-0.094-0.163-0.026-0.328-0.038-0.494-0.037-0.257-0.002-0.512 0.038-0.751 0.117-0.216 0.075-0.412 0.19-0.572 0.336-0.161 0.152-0.284 0.332-0.362 0.527-0.174 0.459-0.174 0.954 0 1.414 0.085 0.199 0.218 0.381 0.389 0.534 0.16 0.145 0.353 0.26 0.568 0.336 0.247 0.073 0.51 0.102 0.77 0.084z"></path>
<path d="M78.714 39.841h2.125v0.484h-2.774v-4.241h0.665l-0.016 3.757z"></path>
<path d="M83.048 40.325h-0.665v-4.241h0.665v4.241z"></path>
<path d="M85.523 36.104c0.040 0.019 0.074 0.046 0.101 0.077l2.844 3.197c-0.004-0.050-0.004-0.101 0-0.151 0-0.047 0-0.094 0-0.138v-3.022h0.58v4.258h-0.335c-0.049 0.003-0.099-0.005-0.144-0.024-0.040-0.021-0.076-0.048-0.105-0.081l-2.84-3.193c0 0.050 0 0.097 0 0.144s0 0.091 0 0.131v3.022h-0.556v-4.241h0.346c0.038 0 0.075 0.007 0.109 0.020z"></path>
<path d="M93.947 36.084v0.467h-2.358v1.4h1.91v0.45h-1.91v1.447h2.358v0.467h-3.043v-4.231h3.043z"></path>
<path d="M24.223 9.896l29.545 7.239v25.366l-29.545-7.236v-25.37zM22.328 7.733v28.764l33.331 8.169v-28.761l-33.331-8.172z"></path>
<path d="M40.192 58.019l-33.335-8.176v-28.761l33.335 8.172v28.765z"></path>
<path d="M22.881 9.57l29.16 7.148-12.401 10.704-29.164-7.152 12.405-10.7zM22.328 7.733l-15.471 13.349 33.335 8.172 15.467-13.349-33.331-8.172z"></path>
<path d="M42.068 56.401l13.591-11.731-13.591-3.334v15.065z"></path>
</symbol>
<symbol id="icon-brand" viewBox="0 0 119 64">
<path d="M30.619 50.712c0.281 0.313 0.43 0.704 0.422 1.106 0.014 0.262-0.037 0.524-0.15 0.766s-0.285 0.458-0.504 0.631c-0.545 0.37-1.22 0.552-1.902 0.51h-3.343v-7.008h3.274c0.646-0.039 1.288 0.126 1.814 0.466 0.211 0.159 0.379 0.361 0.489 0.588s0.16 0.475 0.146 0.723c0.019 0.387-0.116 0.767-0.38 1.072-0.254 0.279-0.605 0.472-0.996 0.548 0.443 0.073 0.844 0.285 1.13 0.599zM26.698 49.654h1.4c0.318 0.021 0.634-0.062 0.89-0.233 0.105-0.086 0.187-0.192 0.239-0.311s0.073-0.247 0.061-0.374c0.010-0.127-0.012-0.254-0.063-0.372s-0.131-0.225-0.234-0.312c-0.264-0.176-0.589-0.26-0.916-0.236h-1.377v1.839zM29.125 52.342c0.112-0.088 0.201-0.198 0.258-0.321s0.082-0.257 0.073-0.391c0.009-0.135-0.017-0.27-0.076-0.395s-0.148-0.236-0.262-0.324c-0.274-0.183-0.61-0.272-0.951-0.253h-1.468v1.928h1.487c0.335 0.017 0.666-0.068 0.939-0.243z"></path>
<path d="M37.313 53.725l-1.822-2.739h-0.685v2.739h-1.567v-7.008h2.966c0.748-0.047 1.487 0.166 2.065 0.596 0.415 0.38 0.665 0.882 0.705 1.413s-0.131 1.059-0.485 1.487c-0.366 0.377-0.866 0.629-1.415 0.712l1.94 2.801h-1.704zM34.806 50.031h1.282c0.89 0 1.335-0.354 1.335-1.061 0.009-0.145-0.015-0.289-0.072-0.425s-0.143-0.259-0.255-0.363c-0.281-0.211-0.643-0.313-1.008-0.284h-1.297l0.015 2.133z"></path>
<path d="M45.877 52.315h-3.122l-0.552 1.41h-1.643l2.868-6.93h1.776l2.856 6.93h-1.643l-0.54-1.41zM45.459 51.253l-1.141-2.958-1.141 2.958h2.282z"></path>
<path d="M56.598 53.725h-1.555l-3.487-4.766v4.766h-1.552v-7.008h1.552l3.487 4.793v-4.793h1.555v7.008z"></path>
<path d="M65.475 52.047c-0.322 0.529-0.812 0.96-1.407 1.236-0.677 0.308-1.428 0.46-2.187 0.442h-2.769v-7.008h2.769c0.757-0.018 1.507 0.13 2.187 0.431 0.595 0.27 1.086 0.696 1.407 1.222 0.32 0.57 0.487 1.2 0.487 1.839s-0.167 1.269-0.487 1.839zM63.695 51.88c0.444-0.466 0.688-1.059 0.688-1.673s-0.244-1.207-0.688-1.672c-0.537-0.422-1.236-0.636-1.947-0.596h-1.080v4.536h1.080c0.711 0.040 1.411-0.174 1.947-0.596z"></path>
<path d="M46.851 7.733c0 0 20.076 6.824 19.65 16.698v16.701c0 0-20.061-6.827-19.643-16.701l-0.008-16.698z"></path>
<path d="M84.387 37.222c3.792-2.349 8.177-3.804 12.756-4.232v-5.228c-5.275 1.83-9.75 5.149-12.756 9.46z"></path>
<path d="M82.109 38.797c3.103-5.626 8.483-9.967 15.034-12.13v-15.065c0 0-28.592 9.72-27.987 23.782v23.778c0 0 1.274-0.435 3.278-1.25 0-0.76 0-1.527 0.091-2.297 0.592-6.528 4.039-12.577 9.584-16.818z"></path>
<path d="M79.39 47.631c0.15-1.649 0.485-3.28 1-4.869-3.453 3.662-5.543 8.206-5.978 12.993-0.042 0.452-0.065 0.904-0.076 1.37 1.624-0.702 3.514-1.578 5.499-2.609-0.507-2.265-0.656-4.583-0.445-6.885z"></path>
<path d="M80.527 47.716c-0.19 2.083-0.071 4.18 0.354 6.235 7.812-4.208 16.589-10.71 16.251-18.567v-0.685c-5.581 0.562-10.803 2.759-14.862 6.252-0.951 2.165-1.538 4.445-1.742 6.766z"></path>
</symbol>
<symbol id="icon-fosterpeters" viewBox="0 0 119 64">
<path d="M27.518 24.592h-0.003c-2.726 0-4.937 1.993-4.937 4.451v0.003c0 2.458 2.21 4.451 4.937 4.451h0.003c2.726 0 4.937-1.993 4.937-4.451v-0.003c0-2.458-2.21-4.451-4.937-4.451z"></path>
<path d="M63.956 23.169c-0.008-3.414-1.515-6.687-4.193-9.101s-6.307-3.774-10.093-3.782v0c-3.788 0.006-7.419 1.366-10.098 3.78s-4.187 5.688-4.195 9.103v18.828c0 0 28.575-2.87 28.579-18.825v-0.003z"></path>
<path d="M12.571 48.176c0.007 2.376 1.056 4.652 2.919 6.332s4.388 2.627 7.022 2.634c2.634-0.007 5.159-0.953 7.021-2.633s2.913-3.955 2.92-6.331v-13.101c0 0-19.883 1.998-19.883 13.098zM22.513 50.524c-0.515 0-1.018-0.138-1.446-0.396s-0.762-0.624-0.959-1.053-0.249-0.901-0.148-1.356c0.1-0.455 0.348-0.873 0.712-1.202s0.828-0.552 1.333-0.642c0.505-0.090 1.028-0.044 1.504 0.134s0.882 0.478 1.168 0.865c0.286 0.386 0.439 0.84 0.439 1.304 0.001 0.309-0.065 0.615-0.195 0.901s-0.322 0.546-0.564 0.764c-0.242 0.219-0.529 0.393-0.846 0.511s-0.656 0.18-0.998 0.18v-0.009z"></path>
<path d="M40.696 46.303v4.875h-1.004v-4.875h1.004zM42.638 48.386v0.783h-2.216v-0.783h2.216zM42.872 46.303v0.787h-2.451v-0.787h2.451zM47.459 48.627v0.231c0 0.37-0.050 0.703-0.151 0.998s-0.242 0.546-0.425 0.753c-0.183 0.205-0.402 0.363-0.656 0.472-0.252 0.109-0.532 0.164-0.84 0.164-0.306 0-0.586-0.055-0.84-0.164-0.252-0.109-0.471-0.267-0.656-0.472-0.185-0.208-0.329-0.459-0.432-0.753-0.1-0.295-0.151-0.627-0.151-0.998v-0.231c0-0.373 0.050-0.705 0.151-0.998 0.1-0.295 0.242-0.546 0.425-0.753 0.185-0.208 0.404-0.366 0.656-0.475 0.254-0.109 0.535-0.164 0.84-0.164 0.308 0 0.588 0.055 0.84 0.164 0.254 0.109 0.473 0.268 0.656 0.475 0.185 0.208 0.328 0.459 0.429 0.753 0.103 0.292 0.154 0.625 0.154 0.998zM46.445 48.858v-0.238c0-0.259-0.023-0.487-0.070-0.683s-0.116-0.362-0.208-0.496-0.203-0.234-0.335-0.301c-0.132-0.069-0.282-0.104-0.452-0.104s-0.32 0.035-0.452 0.104c-0.13 0.067-0.24 0.167-0.331 0.301-0.089 0.134-0.157 0.299-0.204 0.496s-0.070 0.424-0.070 0.683v0.238c0 0.257 0.023 0.484 0.070 0.683 0.047 0.196 0.116 0.363 0.208 0.499 0.092 0.134 0.203 0.236 0.335 0.305s0.282 0.104 0.452 0.104c0.17 0 0.32-0.035 0.452-0.104s0.242-0.171 0.331-0.305c0.089-0.136 0.157-0.302 0.204-0.499 0.047-0.199 0.070-0.426 0.070-0.683zM50.72 49.902c0-0.087-0.013-0.165-0.040-0.234-0.025-0.071-0.071-0.136-0.141-0.194-0.069-0.060-0.166-0.119-0.291-0.177s-0.287-0.118-0.486-0.181c-0.221-0.071-0.431-0.152-0.63-0.241-0.196-0.089-0.37-0.193-0.522-0.311-0.15-0.121-0.268-0.26-0.355-0.419-0.085-0.158-0.127-0.343-0.127-0.552 0-0.203 0.045-0.387 0.134-0.552 0.089-0.167 0.214-0.31 0.375-0.429 0.161-0.12 0.35-0.213 0.569-0.278 0.221-0.065 0.463-0.097 0.727-0.097 0.359 0 0.673 0.065 0.941 0.194s0.476 0.307 0.623 0.532c0.15 0.225 0.224 0.483 0.224 0.773h-0.998c0-0.143-0.030-0.268-0.090-0.375-0.058-0.109-0.147-0.195-0.268-0.258-0.118-0.063-0.268-0.094-0.449-0.094-0.174 0-0.319 0.027-0.435 0.080-0.116 0.051-0.203 0.122-0.261 0.211-0.058 0.087-0.087 0.185-0.087 0.295 0 0.083 0.020 0.157 0.060 0.224 0.042 0.067 0.105 0.129 0.188 0.187s0.184 0.113 0.305 0.164c0.121 0.051 0.26 0.102 0.419 0.151 0.266 0.080 0.499 0.171 0.7 0.271 0.203 0.1 0.373 0.213 0.509 0.338s0.239 0.267 0.308 0.425c0.069 0.158 0.104 0.338 0.104 0.539 0 0.212-0.041 0.402-0.124 0.569s-0.202 0.309-0.358 0.425c-0.156 0.116-0.343 0.204-0.559 0.264s-0.459 0.090-0.727 0.090c-0.241 0-0.479-0.031-0.713-0.094-0.234-0.065-0.448-0.162-0.64-0.291-0.19-0.13-0.342-0.295-0.455-0.496s-0.171-0.439-0.171-0.713h1.008c0 0.152 0.023 0.28 0.070 0.385s0.113 0.19 0.198 0.255c0.087 0.065 0.19 0.112 0.308 0.141 0.121 0.029 0.252 0.044 0.395 0.044 0.174 0 0.317-0.025 0.429-0.074 0.114-0.049 0.198-0.117 0.251-0.204 0.056-0.087 0.084-0.185 0.084-0.295zM54.588 46.303v4.875h-1.001v-4.875h1.001zM56.088 46.303v0.787h-3.978v-0.787h3.978zM59.931 50.394v0.783h-2.595v-0.783h2.595zM57.665 46.303v4.875h-1.004v-4.875h1.004zM59.593 48.288v0.763h-2.257v-0.763h2.257zM59.928 46.303v0.787h-2.592v-0.787h2.592zM60.517 46.303h1.818c0.373 0 0.693 0.056 0.961 0.167 0.27 0.112 0.478 0.277 0.623 0.496s0.218 0.488 0.218 0.807c0 0.261-0.045 0.486-0.134 0.673-0.087 0.185-0.211 0.34-0.372 0.465-0.158 0.123-0.345 0.221-0.559 0.295l-0.318 0.167h-1.58l-0.007-0.783h1.175c0.176 0 0.322-0.031 0.439-0.094s0.203-0.15 0.261-0.261c0.060-0.112 0.090-0.241 0.090-0.388 0-0.156-0.029-0.291-0.087-0.405s-0.146-0.201-0.265-0.261-0.267-0.090-0.445-0.090h-0.814v4.088h-1.004v-4.875zM63.243 51.178l-1.112-2.173 1.062-0.007 1.125 2.133v0.047h-1.075zM68.516 49.44h-1.242v-0.783h1.242c0.192 0 0.348-0.031 0.469-0.094 0.121-0.065 0.209-0.154 0.265-0.268s0.084-0.242 0.084-0.385c0-0.145-0.028-0.28-0.084-0.405s-0.144-0.225-0.265-0.301-0.277-0.114-0.469-0.114h-0.894v4.088h-1.004v-4.875h1.898c0.382 0 0.709 0.069 0.981 0.208 0.275 0.136 0.484 0.325 0.629 0.566s0.218 0.517 0.218 0.827c0 0.315-0.073 0.587-0.218 0.817s-0.355 0.407-0.629 0.532c-0.272 0.125-0.599 0.187-0.981 0.187zM74.309 50.394v0.783h-2.595v-0.783h2.595zM72.042 46.303v4.875h-1.004v-4.875h1.004zM73.97 48.288v0.763h-2.257v-0.763h2.257zM74.305 46.303v0.787h-2.592v-0.787h2.592zM77.141 46.303v4.875h-1.001v-4.875h1.001zM78.641 46.303v0.787h-3.978v-0.787h3.978zM82.485 50.394v0.783h-2.595v-0.783h2.595zM80.218 46.303v4.875h-1.004v-4.875h1.004zM82.147 48.288v0.763h-2.257v-0.763h2.257zM82.482 46.303v0.787h-2.592v-0.787h2.592zM83.071 46.303h1.818c0.373 0 0.693 0.056 0.961 0.167 0.27 0.112 0.478 0.277 0.623 0.496s0.218 0.488 0.218 0.807c0 0.261-0.045 0.486-0.134 0.673-0.087 0.185-0.211 0.34-0.372 0.465-0.159 0.123-0.345 0.221-0.559 0.295l-0.318 0.167h-1.58l-0.007-0.783h1.175c0.176 0 0.323-0.031 0.439-0.094s0.203-0.15 0.261-0.261c0.060-0.112 0.090-0.241 0.090-0.388 0-0.156-0.029-0.291-0.087-0.405s-0.146-0.201-0.264-0.261c-0.118-0.060-0.267-0.090-0.445-0.090h-0.814v4.088h-1.004v-4.875zM85.796 51.178l-1.112-2.173 1.061-0.007 1.125 2.133v0.047h-1.075zM90.002 49.902c0-0.087-0.013-0.165-0.040-0.234-0.025-0.071-0.071-0.136-0.141-0.194-0.069-0.060-0.166-0.119-0.291-0.177s-0.287-0.118-0.486-0.181c-0.221-0.071-0.431-0.152-0.629-0.241-0.196-0.089-0.371-0.193-0.522-0.311-0.15-0.121-0.268-0.26-0.355-0.419-0.085-0.158-0.127-0.343-0.127-0.552 0-0.203 0.045-0.387 0.134-0.552 0.089-0.167 0.214-0.31 0.375-0.429 0.161-0.12 0.35-0.213 0.569-0.278 0.221-0.065 0.463-0.097 0.727-0.097 0.359 0 0.673 0.065 0.941 0.194s0.475 0.307 0.623 0.532c0.15 0.225 0.224 0.483 0.224 0.773h-0.998c0-0.143-0.030-0.268-0.090-0.375-0.058-0.109-0.147-0.195-0.268-0.258-0.118-0.063-0.268-0.094-0.449-0.094-0.174 0-0.319 0.027-0.435 0.080-0.116 0.051-0.203 0.122-0.261 0.211-0.058 0.087-0.087 0.185-0.087 0.295 0 0.083 0.020 0.157 0.060 0.224 0.042 0.067 0.105 0.129 0.188 0.187s0.184 0.113 0.305 0.164c0.121 0.051 0.26 0.102 0.418 0.151 0.266 0.080 0.499 0.171 0.7 0.271 0.203 0.1 0.373 0.213 0.509 0.338s0.239 0.267 0.308 0.425c0.069 0.158 0.104 0.338 0.104 0.539 0 0.212-0.041 0.402-0.124 0.569s-0.202 0.309-0.358 0.425c-0.156 0.116-0.343 0.204-0.559 0.264s-0.459 0.090-0.727 0.090c-0.241 0-0.479-0.031-0.713-0.094-0.234-0.065-0.448-0.162-0.64-0.291-0.19-0.13-0.341-0.295-0.455-0.496s-0.171-0.439-0.171-0.713h1.008c0 0.152 0.023 0.28 0.070 0.385s0.113 0.19 0.198 0.255c0.087 0.065 0.19 0.112 0.308 0.141 0.121 0.029 0.252 0.044 0.395 0.044 0.174 0 0.317-0.025 0.429-0.074 0.114-0.049 0.198-0.117 0.251-0.204 0.056-0.087 0.084-0.185 0.084-0.295z"></path>
</symbol>
<symbol id="icon-company" viewBox="0 0 119 64">
<path d="M42.068 56.255c0.018 0 0.037 0.004 0.053 0.010s0.032 0.016 0.044 0.027l0.252 0.237c-0.196 0.192-0.438 0.346-0.71 0.45-0.318 0.114-0.661 0.169-1.006 0.162-0.324 0.006-0.646-0.046-0.946-0.151-0.271-0.097-0.514-0.242-0.713-0.426-0.203-0.191-0.36-0.414-0.461-0.658-0.11-0.271-0.165-0.557-0.161-0.844-0.005-0.289 0.054-0.576 0.173-0.846 0.11-0.245 0.276-0.468 0.489-0.658 0.215-0.186 0.473-0.332 0.757-0.429 0.311-0.103 0.642-0.154 0.975-0.151 0.309-0.006 0.617 0.040 0.905 0.138 0.25 0.093 0.479 0.221 0.678 0.38l-0.211 0.253c-0.015 0.018-0.033 0.033-0.054 0.046-0.025 0.015-0.055 0.021-0.085 0.019-0.033-0.002-0.064-0.011-0.092-0.027l-0.114-0.067-0.158-0.086c-0.068-0.032-0.139-0.060-0.211-0.084-0.094-0.029-0.19-0.051-0.287-0.067-0.124-0.019-0.25-0.028-0.375-0.027-0.24-0.002-0.478 0.036-0.7 0.113-0.207 0.072-0.394 0.18-0.549 0.318-0.157 0.147-0.279 0.319-0.356 0.507-0.089 0.215-0.133 0.441-0.129 0.669-0.004 0.231 0.040 0.461 0.129 0.679 0.077 0.186 0.196 0.357 0.35 0.504 0.144 0.137 0.324 0.244 0.524 0.313 0.206 0.073 0.427 0.11 0.65 0.108 0.129 0.002 0.258-0.006 0.385-0.022 0.208-0.022 0.408-0.083 0.584-0.181 0.088-0.050 0.172-0.106 0.249-0.167 0.032-0.026 0.075-0.042 0.12-0.043z"></path>
<path d="M49.356 55.063c0.004 0.286-0.054 0.57-0.17 0.838-0.103 0.243-0.265 0.465-0.475 0.651s-0.465 0.331-0.746 0.427c-0.618 0.201-1.3 0.201-1.918 0-0.279-0.097-0.532-0.243-0.741-0.429-0.21-0.189-0.373-0.413-0.48-0.658-0.227-0.543-0.227-1.136 0-1.679 0.108-0.245 0.27-0.469 0.48-0.66 0.211-0.18 0.464-0.32 0.741-0.412 0.617-0.205 1.301-0.205 1.918 0 0.28 0.097 0.534 0.243 0.745 0.429 0.208 0.187 0.37 0.408 0.476 0.65 0.117 0.27 0.175 0.556 0.17 0.844zM48.693 55.063c0.005-0.229-0.036-0.457-0.12-0.674-0.071-0.186-0.186-0.358-0.338-0.504-0.148-0.139-0.33-0.247-0.533-0.318-0.449-0.147-0.946-0.147-1.394 0-0.203 0.071-0.385 0.18-0.533 0.318-0.154 0.145-0.27 0.317-0.341 0.504-0.161 0.439-0.161 0.909 0 1.348 0.071 0.187 0.187 0.358 0.341 0.504 0.148 0.138 0.33 0.245 0.533 0.315 0.45 0.144 0.945 0.144 1.394 0 0.203-0.070 0.385-0.178 0.533-0.315 0.151-0.147 0.266-0.318 0.338-0.504 0.085-0.217 0.125-0.445 0.12-0.674z"></path>
<path d="M54.327 55.77l0.066 0.151c0.025-0.054 0.047-0.102 0.073-0.151 0.024-0.051 0.051-0.1 0.082-0.148l1.612-2.504c0.032-0.043 0.060-0.070 0.092-0.078 0.043-0.011 0.088-0.016 0.132-0.014h0.476v4.073h-0.565v-2.994c0-0.038 0-0.081 0-0.127-0.003-0.047-0.003-0.093 0-0.14l-1.621 2.539c-0.021 0.038-0.053 0.070-0.095 0.093s-0.090 0.034-0.139 0.034h-0.091c-0.049 0.001-0.097-0.011-0.139-0.034s-0.074-0.055-0.095-0.093l-1.669-2.555c0 0.048 0 0.097 0 0.145s0 0.092 0 0.129v2.994h-0.546v-4.064h0.476c0.045-0.002 0.090 0.002 0.132 0.014 0.039 0.017 0.070 0.044 0.088 0.078l1.647 2.507c0.032 0.046 0.060 0.095 0.082 0.145z"></path>
<path d="M60.394 55.568v1.525h-0.631v-4.067h1.407c0.266-0.004 0.53 0.026 0.785 0.089 0.204 0.050 0.394 0.136 0.555 0.253 0.14 0.11 0.248 0.247 0.315 0.399 0.075 0.166 0.111 0.343 0.107 0.52 0.003 0.178-0.037 0.355-0.117 0.52-0.076 0.156-0.192 0.295-0.341 0.407-0.162 0.122-0.352 0.214-0.558 0.27-0.246 0.067-0.502 0.099-0.76 0.094l-0.763-0.011zM60.394 55.131h0.763c0.166 0.002 0.331-0.019 0.489-0.062 0.13-0.038 0.251-0.097 0.353-0.175 0.095-0.075 0.168-0.167 0.215-0.27 0.052-0.109 0.077-0.225 0.076-0.342 0.007-0.113-0.014-0.226-0.063-0.331s-0.124-0.2-0.221-0.278c-0.241-0.161-0.544-0.239-0.849-0.218h-0.763v1.676z"></path>
<path d="M68.874 57.099h-0.499c-0.050 0.002-0.099-0.012-0.139-0.038-0.036-0.025-0.064-0.058-0.082-0.094l-0.429-0.984h-2.155l-0.445 0.984c-0.016 0.036-0.044 0.068-0.079 0.092-0.040 0.028-0.091 0.042-0.142 0.040h-0.499l1.893-4.073h0.656l1.918 4.073zM65.751 55.586h1.779l-0.751-1.658c-0.057-0.125-0.105-0.253-0.142-0.383l-0.073 0.213c-0.022 0.065-0.047 0.124-0.069 0.172l-0.745 1.655z"></path>
<path d="M71.599 53.045c0.038 0.018 0.070 0.043 0.095 0.073l2.76 3.070c0-0.049 0-0.097 0-0.143s0-0.092 0-0.135v-2.884h0.565v4.073h-0.315c-0.045 0.001-0.089-0.007-0.129-0.024-0.039-0.019-0.073-0.045-0.101-0.076l-2.757-3.067c0.003 0.047 0.003 0.093 0 0.14 0 0.046 0 0.086 0 0.124v2.903h-0.565v-4.073h0.334c0.039-0.001 0.078 0.006 0.114 0.019z"></path>
<path d="M79.669 55.479v1.617h-0.631v-1.617l-1.745-2.453h0.565c0.049-0.002 0.097 0.010 0.136 0.035 0.034 0.026 0.063 0.057 0.085 0.092l1.092 1.582c0.044 0.067 0.082 0.129 0.114 0.189s0.057 0.116 0.079 0.173l0.082-0.175c0.031-0.064 0.067-0.126 0.107-0.186l1.076-1.593c0.023-0.032 0.050-0.061 0.082-0.086 0.037-0.028 0.086-0.042 0.136-0.040h0.571l-1.748 2.464z"></path>
<path d="M54.015 46.191c0.274 0.030 0.552 0.054 0.833 0.075 4.257-1.627 7.858-4.29 10.353-7.656s3.774-7.285 3.676-11.269l-4.691-4.008c0.954 4.241 0.508 8.625-1.289 12.662s-4.872 7.567-8.882 10.195z"></path>
<path d="M52.34 46.004l0.126 0.022c4.286-2.619 7.553-6.276 9.38-10.499s2.129-8.816 0.867-13.187l-6.682-5.709c2.703 4.692 3.79 9.944 3.137 15.144s-3.021 10.134-6.828 14.23z"></path>
<path d="M75 32.048c-1.135 4.377-3.892 8.324-7.862 11.256-1.159 0.861-2.41 1.628-3.735 2.291 3.232-0.812 6.203-2.247 8.684-4.194s4.404-4.356 5.623-7.040l-2.71-2.313z"></path>
<path d="M73.937 31.404l-3.858-3.296c-0.074 3.758-1.324 7.431-3.622 10.637s-5.558 5.827-9.442 7.592h0.019c0.866-0 1.73-0.044 2.59-0.132 3.63-1.266 6.837-3.28 9.334-5.862s4.208-5.653 4.978-8.938z"></path>
<path d="M52.898 14.224l-4.603-3.938c-4.115 1.358-7.653 3.747-10.153 6.852s-3.844 6.783-3.857 10.552v0c0.015 4.165 1.656 8.206 4.662 11.484s7.206 5.606 11.935 6.616c4.221-4.394 6.693-9.824 7.056-15.501s-1.403-11.304-5.040-16.065z"></path>
<path d="M84.571 30.797c-0.017-4.941-2.321-9.675-6.41-13.169s-9.631-5.463-15.414-5.477c-2.672-0.002-5.322 0.419-7.814 1.242l28.181 24.078c0.965-2.128 1.459-4.391 1.457-6.674z"></path>
</symbol>
<symbol id="icon-yaco" viewBox="0 0 119 64">
<path d="M43.429 8l8.009 7.63-14.866-0.009v37.020h38.857v-14.154l8 7.622v-38.108h-40zM75.077 37.591l-22.708-21.634h22.708v21.634zM68.026 47.226h-25.306v-24.898h1.789v23.212h23.518v1.686zM47.767 59.498l-0.943-1.939h-0.778l1.367 2.567v1.496h0.706v-1.496l1.367-2.567h-0.776l-0.943 1.939zM51.243 57.559h0.167l1.535 4.063h-0.737l-0.329-0.951h-1.573l-0.328 0.951h-0.734l1.529-4.063h0.469zM50.499 60.115h1.189l-0.595-1.723-0.594 1.723zM55.408 59.442c-0.031-0.039-0.060-0.077-0.088-0.114-0.104-0.138-0.185-0.271-0.243-0.399-0.058-0.13-0.087-0.264-0.087-0.402 0-0.212 0.044-0.394 0.131-0.547s0.211-0.27 0.371-0.352c0.16-0.084 0.347-0.126 0.561-0.126 0.206 0 0.384 0.042 0.533 0.126 0.151 0.082 0.266 0.191 0.346 0.326 0.082 0.136 0.123 0.285 0.123 0.446 0 0.128-0.023 0.246-0.070 0.352s-0.111 0.203-0.193 0.29c-0.082 0.087-0.177 0.17-0.285 0.248l-0.282 0.205 0.804 0.949c0.026-0.052 0.050-0.107 0.072-0.164 0.069-0.179 0.103-0.377 0.103-0.594h0.58c0 0.197-0.020 0.384-0.059 0.561-0.037 0.177-0.098 0.34-0.181 0.491-0.034 0.063-0.072 0.122-0.115 0.179l0.595 0.702h-0.778l-0.236-0.278c-0.128 0.097-0.267 0.173-0.417 0.228-0.197 0.071-0.407 0.106-0.63 0.106-0.27 0-0.503-0.049-0.7-0.148s-0.35-0.234-0.458-0.407c-0.106-0.173-0.159-0.371-0.159-0.594 0-0.166 0.034-0.311 0.103-0.435 0.069-0.126 0.163-0.244 0.282-0.352 0.11-0.1 0.235-0.199 0.376-0.299zM55.742 59.85l-0.084 0.061c-0.099 0.080-0.172 0.157-0.22 0.232-0.047 0.073-0.077 0.14-0.092 0.201s-0.022 0.115-0.022 0.162c0 0.119 0.025 0.227 0.075 0.324 0.052 0.097 0.127 0.174 0.226 0.232 0.1 0.056 0.222 0.084 0.365 0.084 0.154 0 0.304-0.034 0.449-0.103 0.073-0.035 0.142-0.078 0.207-0.128l-0.904-1.063zM55.902 59.108l0.249-0.168c0.117-0.078 0.201-0.154 0.251-0.229 0.050-0.076 0.075-0.171 0.075-0.285 0-0.097-0.037-0.186-0.112-0.268s-0.18-0.123-0.315-0.123c-0.095 0-0.175 0.022-0.24 0.067-0.065 0.043-0.114 0.1-0.148 0.173-0.032 0.071-0.047 0.15-0.047 0.237 0 0.084 0.021 0.17 0.064 0.259 0.043 0.087 0.101 0.18 0.176 0.276 0.015 0.019 0.031 0.039 0.047 0.059zM63.010 60.299h-0.698c-0.020 0.177-0.063 0.326-0.128 0.449-0.063 0.121-0.157 0.213-0.282 0.276-0.123 0.063-0.284 0.095-0.483 0.095-0.164 0-0.304-0.033-0.421-0.098s-0.214-0.157-0.29-0.276c-0.074-0.119-0.13-0.261-0.167-0.427-0.035-0.167-0.053-0.353-0.053-0.558v-0.343c0-0.216 0.020-0.407 0.059-0.575 0.041-0.169 0.101-0.312 0.181-0.427s0.18-0.203 0.299-0.262c0.119-0.060 0.258-0.089 0.419-0.089 0.195 0 0.353 0.033 0.474 0.1 0.121 0.065 0.212 0.16 0.273 0.285 0.063 0.125 0.104 0.274 0.123 0.449h0.697c-0.028-0.272-0.104-0.512-0.229-0.723-0.123-0.21-0.296-0.375-0.519-0.494s-0.497-0.179-0.82-0.179c-0.255 0-0.485 0.045-0.689 0.134-0.203 0.089-0.377 0.218-0.522 0.388-0.145 0.167-0.257 0.369-0.335 0.605-0.076 0.236-0.114 0.5-0.114 0.792v0.338c0 0.292 0.037 0.556 0.112 0.792 0.076 0.236 0.186 0.438 0.329 0.605 0.143 0.166 0.315 0.294 0.516 0.385 0.201 0.089 0.427 0.134 0.678 0.134 0.327 0 0.605-0.060 0.834-0.179s0.406-0.282 0.533-0.488c0.127-0.208 0.201-0.446 0.223-0.712zM66.885 59.702v-0.223c0-0.307-0.041-0.581-0.123-0.823-0.080-0.244-0.194-0.451-0.343-0.622-0.149-0.173-0.326-0.304-0.533-0.394-0.207-0.091-0.435-0.137-0.686-0.137-0.249 0-0.477 0.046-0.684 0.137-0.205 0.089-0.382 0.22-0.533 0.394-0.149 0.171-0.264 0.379-0.346 0.622-0.082 0.242-0.123 0.516-0.123 0.823v0.223c0 0.307 0.041 0.582 0.123 0.826 0.084 0.244 0.201 0.451 0.352 0.622s0.328 0.302 0.533 0.394c0.207 0.089 0.434 0.134 0.684 0.134 0.251 0 0.48-0.045 0.686-0.134 0.206-0.091 0.383-0.222 0.53-0.394 0.149-0.171 0.263-0.379 0.343-0.622s0.12-0.519 0.12-0.826zM66.185 59.473v0.229c0 0.227-0.022 0.428-0.067 0.603-0.043 0.175-0.106 0.323-0.19 0.444-0.084 0.119-0.186 0.209-0.307 0.271-0.121 0.060-0.26 0.089-0.416 0.089-0.154 0-0.292-0.030-0.413-0.089-0.121-0.061-0.225-0.152-0.313-0.271-0.085-0.121-0.151-0.269-0.195-0.444s-0.067-0.376-0.067-0.603v-0.229c0-0.227 0.022-0.427 0.067-0.6 0.045-0.175 0.109-0.321 0.193-0.438 0.085-0.119 0.189-0.208 0.31-0.268 0.121-0.061 0.258-0.092 0.413-0.092s0.293 0.031 0.416 0.092c0.123 0.059 0.226 0.149 0.31 0.268 0.085 0.117 0.15 0.263 0.192 0.438 0.045 0.173 0.067 0.373 0.067 0.6z"></path>
</symbol>
<symbol id="icon-linkedin" viewBox="0 0 64 64">
<path d="M63.984 64v-0.003h0.016v-23.472c0-11.483-2.472-20.328-15.896-20.328-6.453 0-10.784 3.541-12.552 6.899h-0.187v-5.827h-12.728v42.728h13.253v-21.157c0-5.571 1.056-10.957 7.955-10.957 6.798 0 6.899 6.357 6.899 11.315v20.803h13.24z"></path>
<path d="M1.056 21.271h13.269v42.728h-13.269v-42.728z"></path>
<path d="M7.686-0.001c-4.243 0-7.685 3.443-7.685 7.685s3.443 7.757 7.685 7.757c4.243 0 7.685-3.515 7.685-7.757-0.003-4.243-3.445-7.685-7.685-7.685v0z"></path>
</symbol>
<symbol id="icon-facebook" viewBox="0 0 64 64">
<path d="M42.659 10.626h5.843v-10.176c-1.008-0.139-4.475-0.451-8.512-0.451-8.424 0-14.195 5.299-14.195 15.037v8.963h-9.296v11.376h9.296v28.624h11.397v-28.621h8.92l1.416-11.376h-10.339v-7.837c0.003-3.288 0.888-5.539 5.469-5.539z"></path>
</symbol>
<symbol id="icon-twitter" viewBox="0 0 64 64">
<path d="M64 12.155c-2.38 1.044-4.916 1.736-7.56 2.072 2.72-1.624 4.796-4.176 5.772-7.252-2.536 1.512-5.336 2.58-8.32 3.176-2.408-2.564-5.84-4.152-9.584-4.152-7.264 0-13.112 5.896-13.112 13.124 0 1.040 0.088 2.040 0.304 2.992-10.908-0.532-20.56-5.76-27.044-13.724-1.132 1.964-1.796 4.212-1.796 6.632 0 4.544 2.34 8.572 5.828 10.904-2.108-0.040-4.176-0.652-5.928-1.616 0 0.040 0 0.092 0 0.144 0 6.376 4.548 11.672 10.512 12.892-1.068 0.292-2.232 0.432-3.44 0.432-0.84 0-1.688-0.048-2.484-0.224 1.7 5.196 6.524 9.016 12.26 9.14-4.464 3.492-10.132 5.596-16.268 5.596-1.076 0-2.108-0.048-3.14-0.18 5.812 3.748 12.7 5.888 20.128 5.888 24.144 0 37.344-20 37.344-37.336 0-0.58-0.020-1.14-0.048-1.696 2.604-1.848 4.792-4.156 6.576-6.812z"></path>
</symbol>
<symbol id="icon-instagram" viewBox="0 0 64 64">
<path d="M63.937 18.816c-0.15-3.401-0.7-5.738-1.488-7.764-0.813-2.15-2.063-4.075-3.701-5.676-1.6-1.625-3.538-2.888-5.664-3.688-2.038-0.788-4.363-1.338-7.764-1.488-3.426-0.163-4.514-0.2-13.203-0.2s-9.777 0.038-13.19 0.188c-3.401 0.15-5.738 0.7-7.764 1.488-2.151 0.813-4.076 2.063-5.676 3.701-1.625 1.6-2.888 3.538-3.688 5.664-0.788 2.038-1.338 4.363-1.488 7.764-0.163 3.426-0.2 4.514-0.2 13.203s0.038 9.777 0.188 13.19c0.15 3.4 0.7 5.738 1.488 7.764 0.813 2.15 2.075 4.076 3.7 5.676 1.6 1.625 3.538 2.888 5.664 3.688 2.038 0.788 4.363 1.338 7.764 1.488 3.413 0.151 4.501 0.188 13.19 0.188s9.777-0.037 13.19-0.188c3.4-0.15 5.738-0.7 7.764-1.488 4.301-1.663 7.702-5.063 9.365-9.364 0.787-2.038 1.338-4.364 1.488-7.764 0.15-3.414 0.188-4.501 0.188-13.19s-0.013-9.777-0.163-13.19zM58.174 44.946c-0.138 3.126-0.663 4.814-1.1 5.939-1.076 2.788-3.288 5.001-6.076 6.076-1.125 0.438-2.825 0.963-5.939 1.1-3.376 0.15-4.388 0.187-12.927 0.187s-9.564-0.037-12.928-0.187c-3.126-0.137-4.813-0.662-5.939-1.1-1.387-0.513-2.65-1.326-3.675-2.388-1.063-1.038-1.875-2.288-2.388-3.676-0.438-1.125-0.963-2.826-1.1-5.939-0.15-3.376-0.188-4.388-0.188-12.928s0.037-9.564 0.188-12.927c0.137-3.126 0.662-4.813 1.1-5.939 0.513-1.388 1.325-2.65 2.401-3.676 1.037-1.063 2.287-1.875 3.675-2.388 1.125-0.438 2.826-0.963 5.939-1.1 3.376-0.15 4.389-0.188 12.927-0.188 8.552 0 9.564 0.038 12.928 0.188 3.126 0.138 4.814 0.663 5.939 1.1 1.387 0.512 2.65 1.325 3.676 2.388 1.062 1.038 1.875 2.288 2.388 3.676 0.438 1.125 0.962 2.825 1.1 5.939 0.15 3.376 0.188 4.388 0.188 12.927s-0.038 9.539-0.188 12.915z"></path>
<path d="M32.119 15.565c-9.076 0-16.441 7.364-16.441 16.441s7.364 16.441 16.441 16.441c9.077 0 16.441-7.364 16.441-16.441s-7.364-16.441-16.441-16.441zM32.119 42.67c-5.888 0-10.665-4.776-10.665-10.665s4.776-10.665 10.665-10.665c5.889 0 10.664 4.776 10.664 10.665s-4.776 10.665-10.665 10.665z"></path>
<path d="M53.048 14.915c0 2.12-1.718 3.838-3.838 3.838s-3.838-1.719-3.838-3.838c0-2.12 1.719-3.838 3.838-3.838s3.838 1.718 3.838 3.838z"></path>
</symbol>
</defs>
</svg>
